<?xml version="1.0" standalone="no"?>
<!DOCTYPE svg PUBLIC "-//W3C//DTD SVG 20010904//EN"
 "http://www.w3.org/TR/2001/REC-SVG-20010904/DTD/svg10.dtd">
<svg version="1.0" xmlns="http://www.w3.org/2000/svg"
 width="537.000000pt" height="214.000000pt" viewBox="0 0 537.000000 214.000000"
 preserveAspectRatio="xMidYMid meet">

<g transform="translate(0.000000,214.000000) scale(0.100000,-0.100000)"
fill="#000000" stroke="none">
<path d="M1670 1583 c-14 -2 -74 -10 -135 -19 -245 -33 -571 -113 -625 -153
-15 -10 -53 -32 -86 -49 -33 -17 -66 -37 -73 -46 -18 -22 -10 -56 18 -75 23
-15 24 -15 10 7 -9 14 -10 25 -4 31 6 5 228 54 495 109 506 105 517 106 504
57 -4 -15 -27 -28 -89 -50 -47 -16 -83 -30 -81 -32 2 -2 34 1 71 7 37 6 69 9
72 7 11 -11 -18 -57 -37 -57 -24 0 -26 -9 -5 -24 13 -9 5 -39 -51 -211 -36
-110 -70 -205 -77 -212 -9 -9 -36 -4 -112 20 -55 18 -105 35 -111 39 -7 4 -15
32 -18 62 -9 70 -20 82 -86 103 -51 17 -55 21 -61 53 l-5 35 -14 -27 c-7 -16
-17 -28 -22 -28 -9 0 -216 62 -287 86 -24 8 -45 13 -48 11 -2 -3 54 -25 124
-50 149 -53 312 -123 331 -141 7 -7 20 -39 28 -72 18 -69 33 -88 94 -120 25
-13 39 -23 33 -24 -32 -1 -8 -18 42 -30 79 -19 83 -27 57 -110 -26 -79 -40
-94 -82 -88 -37 6 -35 -11 4 -30 23 -12 31 -11 52 3 27 17 60 80 70 134 11 52
-2 77 -47 95 -52 21 -45 31 10 16 53 -14 61 -9 149 89 81 89 93 117 143 316
23 92 30 144 30 223 1 138 -8 153 -94 151 -34 -1 -73 -3 -87 -6z"/>
</g>
</svg>
